<svg width="684" height="59" viewBox="0 0 684 59" fill="none" xmlns="http://www.w3.org/2000/svg">
<path d="M41.02 43.8L0.4 30.96V24.06L41.02 11.28V18.6L11.02 27.54L41.02 36.48V43.8ZM47.3702 45V2.1H83.3102C87.7502 2.1 91.1902 3.22 93.6302 5.46C96.1102 7.7 97.3502 11.1 97.3502 15.66C97.3502 20.22 96.1102 23.62 93.6302 25.86C91.1902 28.1 87.7502 29.22 83.3102 29.22H56.9702V45H47.3702ZM82.1702 9.9H56.9702V21.36L82.1702 21.42C83.9302 21.42 85.2702 20.98 86.1902 20.1C87.1502 19.22 87.6302 17.74 87.6302 15.66C87.6302 13.54 87.1502 12.06 86.1902 11.22C85.2702 10.34 83.9302 9.9 82.1702 9.9ZM110.407 45C107.167 45 104.687 44.18 102.967 42.54C101.247 40.9 100.387 38.56 100.387 35.52C100.387 32.52 101.247 30.2 102.967 28.56C104.687 26.92 107.167 26.1 110.407 26.1H133.447V24.66C133.447 22.22 132.247 21 129.847 21H104.407V14.1H132.127C135.767 14.1 138.347 14.94 139.867 16.62C141.387 18.26 142.147 20.58 142.147 23.58V45H110.407ZM111.967 38.1H133.447V33H111.967C111.207 33 110.607 33.24 110.167 33.72C109.767 34.16 109.567 34.76 109.567 35.52C109.567 36.28 109.767 36.9 110.167 37.38C110.607 37.86 111.207 38.1 111.967 38.1ZM148.529 45V14.1H172.169C175.649 14.1 178.209 14.98 179.849 16.74C181.489 18.46 182.309 20.74 182.309 23.58V30H173.489V24.66C173.489 22.26 172.289 21.06 169.889 21.06H157.349V45H148.529ZM202.924 45C199.444 45 196.884 44.14 195.244 42.42C193.604 40.66 192.784 38.36 192.784 35.52V21H183.844V14.1H192.784V4.62H201.484V14.1H214.324V21H201.484V34.44C201.484 36.88 202.684 38.1 205.084 38.1H216.004V45H202.924ZM220.237 45V2.1H228.937V14.1H247.177C250.697 14.1 253.257 14.98 254.857 16.74C256.497 18.46 257.317 20.74 257.317 23.58V45H248.617V24.6C248.617 22.2 247.417 21 245.017 21H228.937V45H220.237ZM271.576 45C268.336 45 265.856 44.18 264.136 42.54C262.416 40.9 261.556 38.56 261.556 35.52C261.556 32.52 262.416 30.2 264.136 28.56C265.856 26.92 268.336 26.1 271.576 26.1H294.616V24.66C294.616 22.22 293.416 21 291.016 21H265.576V14.1H293.296C296.936 14.1 299.516 14.94 301.036 16.62C302.556 18.26 303.316 20.58 303.316 23.58V45H271.576ZM273.136 38.1H294.616V33H273.136C272.376 33 271.776 33.24 271.336 33.72C270.936 34.16 270.736 34.76 270.736 35.52C270.736 36.28 270.936 36.9 271.336 37.38C271.776 37.86 272.376 38.1 273.136 38.1ZM331.335 45V2.22L367.455 2.1C372.215 2.1 375.735 3.1 378.015 5.1C380.335 7.06 381.495 10.02 381.495 13.98C381.495 17.94 380.175 20.84 377.535 22.68C379.295 23.64 380.595 24.92 381.435 26.52C382.275 28.08 382.695 30.1 382.695 32.58C382.695 36.62 381.535 39.7 379.215 41.82C376.935 43.9 373.415 44.94 368.655 44.94L331.335 45ZM366.315 9.78H340.935V19.38H366.315C369.955 19.38 371.775 17.74 371.775 14.46C371.775 11.34 369.955 9.78 366.315 9.78ZM367.515 27.06H340.935V37.26H367.515C371.155 37.26 372.975 35.54 372.975 32.1C372.975 28.74 371.155 27.06 367.515 27.06ZM388.144 45V2.1H396.844V14.1H415.084C418.604 14.1 421.164 14.98 422.764 16.74C424.404 18.46 425.224 20.74 425.224 23.58V45H416.524V24.6C416.524 22.2 415.324 21 412.924 21H396.844V45H388.144ZM441.103 45C437.583 45 435.003 44.12 433.363 42.36C431.763 40.6 430.963 38.32 430.963 35.52V14.1H439.663V34.5C439.663 36.9 440.863 38.1 443.263 38.1H455.743C458.143 38.1 459.343 36.9 459.343 34.5V14.1H468.043V35.52C468.043 38.32 467.223 40.6 465.583 42.36C463.983 44.12 461.423 45 457.903 45H441.103ZM481.05 58.5V51.6H499.17C501.57 51.6 502.77 50.38 502.77 47.94V45H484.23C480.71 45 478.13 44.12 476.49 42.36C474.89 40.6 474.09 38.32 474.09 35.52V14.1H482.79V34.5C482.79 36.9 483.99 38.1 486.39 38.1H502.47V14.1H511.47V49.02C511.47 51.86 510.65 54.14 509.01 55.86C507.37 57.62 504.81 58.5 501.33 58.5H481.05ZM526.074 45C522.834 45 520.354 44.18 518.634 42.54C516.914 40.9 516.054 38.56 516.054 35.52C516.054 32.52 516.914 30.2 518.634 28.56C520.354 26.92 522.834 26.1 526.074 26.1H549.114V24.66C549.114 22.22 547.914 21 545.514 21H520.074V14.1H547.794C551.434 14.1 554.014 14.94 555.534 16.62C557.054 18.26 557.814 20.58 557.814 23.58V45H526.074ZM527.634 38.1H549.114V33H527.634C526.874 33 526.274 33.24 525.834 33.72C525.434 34.16 525.234 34.76 525.234 35.52C525.234 36.28 525.434 36.9 525.834 37.38C526.274 37.86 526.874 38.1 527.634 38.1ZM564.196 45V14.1H591.136C594.656 14.1 597.216 14.98 598.816 16.74C600.456 18.46 601.276 20.74 601.276 23.58V45H592.576V24.6C592.576 22.2 591.376 21 588.976 21H572.896V45H564.196ZM604.315 56.58L632.515 0.419998H640.255L612.055 56.58H604.315ZM642.738 11.28L683.358 24.12V31.02L642.738 43.8V36.48L672.738 27.54L642.738 18.6V11.28Z" fill="white"/>
</svg>
