<svg width="139" height="139" viewBox="0 0 139 139" fill="none" xmlns="http://www.w3.org/2000/svg">
<circle cx="69.5" cy="69.5" r="69.5" fill="black"/>
<path d="M42.812 80.28L18.44 72.576V68.436L42.812 60.768V65.16L24.812 70.524L42.812 75.888V80.28ZM46.5261 81V55.26H68.0901C70.7541 55.26 72.8181 55.932 74.2821 57.276C75.7701 58.62 76.5141 60.66 76.5141 63.396C76.5141 66.132 75.7701 68.172 74.2821 69.516C72.8181 70.86 70.7541 71.532 68.0901 71.532H52.2861V81H46.5261ZM67.4061 59.94H52.2861V66.816L67.4061 66.852C68.4621 66.852 69.2661 66.588 69.8181 66.06C70.3941 65.532 70.6821 64.644 70.6821 63.396C70.6821 62.124 70.3941 61.236 69.8181 60.732C69.2661 60.204 68.4621 59.94 67.4061 59.94ZM72.8445 87.948L89.7645 54.252H94.4085L77.4885 87.948H72.8445ZM95.802 60.768L120.174 68.472V72.612L95.802 80.28V75.888L113.802 70.524L95.802 65.16V60.768Z" fill="white"/>
</svg>
